PathFileType	4	(X/Y/Z)	C:/Users/beibeiliu/ov580/test_trc\sequence.29_training_dense_left.trc
DataRate	CameraRate	NumFrames	NumMarkers	Units	OrigDataRate	OrigDataStartFrame	OrigNumFrames
120	120	10	19	mm	120	1	200
Frame#	Time	ThumbCMC			ThumbMCP			ThumbIP			ThumbTip			IndexMCP			IndexPIP			IndexTip			MiddleMCP			MiddlePIP			MiddleTip			RingMCP			RingPIP			RingTip			PinkyMCP			PinkyPIP			PinkyTip			BackHand1			BackHand2			BackHand3	
		X0	Y0	Z0	X1	Y1	Z1	X2	Y2	Z2	X3	Y3	Z3	X4	Y4	Z4	X5	Y5	Z5	X6	Y6	Z6	X7	Y7	Z7	X8	Y8	Z8	X9	Y9	Z9	X10	Y10	Z10	X11	Y11	Z11	X12	Y12	Z12	X13	Y13	Z13	X14	Y14	Z14	X15	Y15	Z15	X16	Y16	Z16	X17	Y17	Z17	X18	Y18	Z18	
0	0	-145.701	17.0419	151.218	-129.96	0.276949	134.495	-110.852	-6.45607	114.799	-98.6676	-13.7829	93.1118	-151.712	27.366	76.28	-143.421	22.7612	51.8002	-139.169	14.6533	21.7702	-172.735	27.3569	65.7961	-172.014	22.4283	38.3405	-171.619	12.0239	10.1855	-192.069	22.4526	66.078	-193.92	18.7461	44.2919	-194.182	10.7446	17.892	-217.453	13.5492	77.3271	-220.742	8.56729	58.8198	-222.717	6.99358	32.4686	-199.993	35.38	113.946	-205.532	39.8309	147.976	-172.232	40.9778	133.334	
1	0.00833333	-146.653	17.4699	149.019	-128.503	2.22217	133.634	-115.293	-5.15993	113.676	-99.5004	-13.0577	93.2916	-151.839	28.6883	74.9559	-144.482	23.808	47.4951	-141.208	14.7674	20.9846	-171.529	28.7117	63.6419	-170.94	24.4303	41.0249	-171.335	13.202	10.2928	-196.38	23.7096	67.8525	-192.498	19.1432	44.1843	-192.516	10.8113	13.1344	-214.576	14.1152	81.5432	-221.021	9.02777	53.9915	-225.646	8.8503	33.8991	-202.447	35.2135	117.63	-203.938	41.5284	145.474	-170.87	40.9607	131.999	
2	0.0166667	-147.097	16.8364	151.255	-130.779	1.83028	136.317	-111.072	-6.43753	112.17	-102.384	-12.9115	97.1293	-146.218	27.6502	72.5677	-144.886	22.7717	50.214	-137.865	16.1575	25.7958	-174.133	28.3496	67.0982	-170.943	23.0126	40.2913	-168.123	13.2608	12.5393	-191.389	23.0704	70.7166	-192.211	16.9084	40.2785	-193.286	9.16694	14.6073	-215.955	14.1494	80.4521	-220.906	7.70526	56.8351	-223.572	5.76201	34.475	-203.036	35.2789	117.214	-203.221	39.4674	145.732	-172.852	40.4881	134.84	
3	0.025	-142.92	16.0093	147.661	-130.291	0.400095	133.767	-112.927	-7.43727	114.079	-101.323	-14.3521	99.2542	-149.099	25.5197	73.2051	-140.249	21.0306	48.014	-143.36	13.6938	26.7161	-171.898	26.2124	69.1535	-170.958	20.2661	38.7869	-170.575	10.2859	12.3707	-190.863	21.247	68.7491	-193.258	15.0238	42.0544	-191.524	8.34081	20.1472	-211.358	11.4599	82.7141	-216.599	7.37087	57.9394	-224.211	5.87677	35.2903	-200.832	32.1341	115.234	-206.824	37.7267	144.626	-170.982	39.2236	132.458	
4	0.0333333	-147.17	14.3781	150.751	-127.865	-1.08377	132.49	-109.817	-8.8976	116.168	-97.7931	-16.3111	98.1056	-146.397	25.0128	76.9503	-142.082	20.6479	52.5973	-138.216	13.5306	27.468	-168.772	25.7453	63.8044	-167.432	17.6372	37.1377	-167.69	9.58711	14.078	-195.133	18.4299	69.4049	-191.403	13.6635	40.8708	-192.303	3.96822	15.9971	-216.315	9.24235	80.4034	-215.029	5.25135	59.5743	-223.877	3.64662	35.1346	-201.262	32.2665	115.801	-200.451	37.276	144.049	-171.138	36.8032	132.489	
5	0.0416667	-145.529	13.9758	146.831	-128.649	-0.919163	133.093	-111.5	-9.16052	111.776	-97.2235	-16.9328	96.9005	-145.329	24.6301	78.3483	-143.689	18.7024	48.456	-138.326	12.6331	27.5003	-172.47	24.0702	64.586	-168.234	18.6373	39.714	-170.383	8.16503	12.9881	-195.233	18.4877	69.3242	-194.071	12.925	41.0147	-193.821	4.87217	18.7884	-213.77	10.6682	80.9094	-215.206	5.64835	61.478	-223.582	1.61438	36.0998	-197.9	32.4945	119.796	-202.528	36.3931	146.02	-167.56	36.9604	134.354	
6	0.05	-143.487	15.0163	148.227	-126.566	-0.771962	133.47	-114.011	-9.71691	116.719	-100.617	-16.0224	98.0478	-148.361	24.9697	73.3926	-140.484	20.3083	53.6904	-140.104	13.1778	27.6567	-173.128	25.1822	64.5522	-168.025	20.2633	42.5795	-167.875	10.3628	11.6409	-190.614	20.2752	72.3535	-192.918	14.9399	44.5152	-189.429	7.19214	15.7414	-216.082	11.5184	80.9248	-217.726	6.00305	56.2259	-223.15	3.9051	34.5792	-196.856	31.7706	120.917	-204.281	37.817	147.972	-171.058	39.4419	135.687	
7	0.0583333	-145.315	18.1219	153.252	-128.812	1.57812	136.797	-110.041	-5.95613	114.366	-97.5053	-12.9734	99.8143	-148.024	28.1611	75.2403	-139.587	21.7747	49.6698	-141.277	16.1904	27.6634	-171.798	27.4721	65.368	-169.341	21.8948	42.0322	-164.314	11.1169	10.1527	-190.901	22.81	71.3176	-195.684	16.557	44.1507	-192.862	9.1923	19.4911	-216.159	14.544	78.6423	-216.885	8.73068	60.0561	-222.293	5.06919	32.0399	-203.031	34.227	120.442	-204.76	39.8119	146.334	-168.868	42.7098	135.35	
8	0.0666667	-145.954	18.6684	150.821	-129.964	2.80518	134.276	-115.009	-4.35402	115.774	-99.3325	-11.2406	96.1218	-148.982	29.7606	78.0806	-141.489	23.8511	49.1671	-135.977	16.1027	24.8573	-172.163	29.5776	69.3431	-171.999	22.672	38.7776	-167.519	13.0441	12.9274	-193.474	24.0095	69.9894	-195.775	18.1212	45.1277	-189.856	9.74325	17.8823	-216.92	14.9405	83.8569	-217.318	9.86566	61.6863	-223.588	6.38717	34.6544	-200.839	34.8319	119.547	-206.516	40.5014	149.677	-171.609	41.8162	136.722	
9	0.075	-149.25	19.7056	152.661	-127.248	3.43317	136.681	-111.531	-3.4425	119.719	-103.164	-11.7804	100.452	-148.551	29.9187	77.643	-145.563	25.3113	53.9214	-141.087	18.0197	27.3065	-171.4	30.6544	67.799	-168.973	25.0441	41.8358	-167.763	14.3243	15.0119	-191.118	25.2667	69.8295	-197.811	19.4977	47.0995	-192.745	9.95983	20.126	-213.199	15.5776	85.2712	-219.363	9.59803	59.6017	-222.562	6.40748	36.296	-204.594	35.9471	120.249	-206.623	41.8224	146.013	-171.711	43.2506	137.957	
